# xmcd CD database file
#
# Track frame offsets:
#	150
#	14327
#	29329
#	43206
#	58808
#	69985
#	81462
#	93689
#	108391
#	120468
#	137045
#	152497
#
# Disc length: 2182 seconds
#
# Revision: 1
# Processed by: cddbd v1.5.2PL0 Copyright (c) Steve Scherf et al.
# Submitted via: CDex 1.51
#
DISCID=a208840c
DTITLE=Graham Rodger - Steering Wheel drovers
DYEAR=1900
DGENRE=Country
TTITLE0=Drysdale River 
TTITLE1=King of the Roadtrains 
TTITLE2=Give Me Waltzing Matilda 
TTITLE3=The Old Landcruiser 
TTITLE4=The Murranji Muster 
TTITLE5=Get Right Off The Place 
TTITLE6=We're Gonna Rock The Old Pub Tonight 
TTITLE7=Steering Wheel Drovers 
TTITLE8=Old Man Drought 
TTITLE9=Roses and Diesel 
TTITLE10=You've Gotta Be Mad to be a Truckie Like Me 
TTITLE11=The Miner's Arms Hotel
EXTD=
EXTT0=
EXTT1=
EXTT2=
EXTT3=
EXTT4=
EXTT5=
EXTT6=
EXTT7=
EXTT8=
EXTT9=
EXTT10=
EXTT11=
PLAYORDER=
